<?xml version="1.0" encoding="UTF-8"?>
<svg id="Layer_1" xmlns="http://www.w3.org/2000/svg" viewBox="0 0 337 354.5">
  <defs>
    <style>
      .cls-1 {
        fill: #dff09d;
      }

      .cls-2 {
        fill: none;
      }

      .cls-3 {
        fill: #1c4648;
      }
    </style>
  </defs>
  <rect x=".5" width="336" height="235"/>
  <rect class="cls-3" x="19" y="17.5" width="300" height="200"/>
  <g>
    <path class="cls-1" d="M84.24,159.13v-92.04h44.36c5.11,0,9.51,1.85,13.21,5.54,3.7,3.7,5.55,8.11,5.55,13.23v23.29c0,5.13-1.84,9.51-5.51,13.16-3.67,3.65-8.09,5.47-13.25,5.47h-31.71v31.35c0,1.73-.61,3.19-1.82,4.4-1.22,1.21-2.69,1.81-4.43,1.81s-3.3-.6-4.54-1.81c-1.24-1.21-1.86-2.67-1.86-4.4ZM96.89,115.36h31.71c1.69,0,3.15-.6,4.39-1.81,1.24-1.21,1.86-2.67,1.86-4.4v-23.29c0-1.72-.62-3.19-1.86-4.4-1.24-1.21-2.71-1.81-4.39-1.81h-31.71v35.71Z"/>
    <path class="cls-1" d="M199.03,159.13v-85.83c0-1.67.61-3.13,1.82-4.36,1.22-1.23,2.69-1.85,4.43-1.85s3.15.62,4.39,1.85c1.24,1.23,1.86,2.69,1.86,4.36v36.6h38.11v-36.6c0-1.67.61-3.13,1.82-4.36,1.21-1.23,2.69-1.85,4.43-1.85s3.21.62,4.43,1.85c1.21,1.23,1.82,2.74,1.82,4.51v85.69c0,1.68-.63,3.13-1.9,4.36-1.27,1.23-2.72,1.85-4.35,1.85-1.79,0-3.28-.6-4.47-1.81-1.19-1.21-1.79-2.67-1.79-4.4v-36.82h-37.96v36.82c0,1.68-.63,3.13-1.9,4.36-1.27,1.23-2.77,1.85-4.5,1.85s-3.15-.6-4.39-1.81c-1.24-1.21-1.86-2.67-1.86-4.4Z"/>
  </g>
  <rect x="51" y="273.5" width="234" height="7"/>
  <polyline points="120 273.99 141.62 234.5 194.06 235.01 215.68 274.5"/>
  <g>
    <rect class="cls-2" y="279.98" width="337" height="74.52"/>
    <path d="M5.64,338.29v-45.25h16.24c1.87,0,3.48.91,4.84,2.73,1.35,1.82,2.03,3.99,2.03,6.5v11.45c0,2.52-.67,4.68-2.02,6.47-1.34,1.79-2.96,2.69-4.85,2.69h-11.61v15.41c0,.85-.22,1.57-.67,2.16-.44.59-.99.89-1.62.89s-1.21-.3-1.66-.89c-.45-.59-.68-1.31-.68-2.16ZM10.27,316.78h11.61c.62,0,1.15-.3,1.61-.89s.68-1.31.68-2.16v-11.45c0-.85-.23-1.57-.68-2.16s-.99-.89-1.61-.89h-11.61v17.55Z"/>
    <path d="M62.39,317.76v7.38c0,.82-.23,1.54-.68,2.14s-.99.91-1.61.91h-16.18v1.78c0,1.04.34,1.93,1.01,2.65l1.33,1.49c.73.75,1.42,1.13,2.07,1.13h11.77c.62,0,1.15.3,1.61.89s.68,1.31.68,2.16-.23,1.54-.69,2.14c-.46.61-.99.91-1.59.91h-12.07c-.8,0-1.64-.22-2.52-.67-.88-.45-1.53-.92-1.95-1.4l-2.04-2.4c-.64-.68-1.17-1.62-1.59-2.83-.43-1.21-.64-2.33-.64-3.34v-13.99c0-.8.23-1.88.69-3.23.46-1.36,1.05-2.41,1.76-3.16l1.91-2c1.25-1.36,2.64-2.04,4.17-2.04h6.43c1.62,0,3.14.9,4.58,2.69l1.72,2.18c1.23,1.48,1.85,3.68,1.85,6.62ZM43.97,317.29v4.72h13.89v-4.25c0-1.14-.26-2.01-.79-2.62l-1.33-1.56c-.69-.75-1.31-1.13-1.85-1.13h-5.75c-.71,0-1.35.33-1.93.98l-1.33,1.49c-.6.61-.9,1.39-.9,2.36Z"/>
    <path d="M89.11,341.34h-4.58c-1.89,0-3.51-.9-4.88-2.69-1.36-1.79-2.04-3.95-2.04-6.47v-19.81h-2.34c-.64,0-1.18-.29-1.62-.87-.45-.58-.67-1.31-.67-2.18s.22-1.57.67-2.16c.44-.59.98-.89,1.62-.89h2.4v-7.49c0-.85.22-1.57.67-2.16.44-.59.99-.89,1.62-.89.6,0,1.13.3,1.59.91.46.61.69,1.32.69,2.14v7.49h9.21c.62,0,1.15.3,1.61.91.45.61.68,1.32.68,2.14s-.23,1.57-.68,2.16c-.45.59-.99.89-1.61.89h-9.26v19.81c0,.82.23,1.54.69,2.14.46.61,1.01.91,1.65.91h4.47c1.22,0,2.02-.88,2.42-2.63s1.17-2.63,2.32-2.63c.67,0,1.22.3,1.65.89s.64,1.34.64,2.23c0,1.84-.65,3.68-1.95,5.51-1.3,1.83-2.96,2.74-4.97,2.74Z"/>
    <path d="M129.79,317.76v7.38c0,.82-.23,1.54-.68,2.14s-.99.91-1.61.91h-16.18v1.78c0,1.04.34,1.93,1.01,2.65l1.33,1.49c.73.75,1.42,1.13,2.07,1.13h11.77c.62,0,1.15.3,1.61.89s.68,1.31.68,2.16-.23,1.54-.69,2.14c-.46.61-.99.91-1.59.91h-12.07c-.8,0-1.64-.22-2.52-.67-.88-.45-1.53-.92-1.95-1.4l-2.04-2.4c-.64-.68-1.17-1.62-1.59-2.83-.43-1.21-.64-2.33-.64-3.34v-13.99c0-.8.23-1.88.69-3.23.46-1.36,1.05-2.41,1.76-3.16l1.91-2c1.25-1.36,2.64-2.04,4.17-2.04h6.43c1.62,0,3.14.9,4.58,2.69l1.72,2.18c1.23,1.48,1.85,3.68,1.85,6.62ZM111.37,317.29v4.72h13.89v-4.25c0-1.14-.26-2.01-.79-2.62l-1.33-1.56c-.69-.75-1.31-1.13-1.85-1.13h-5.75c-.71,0-1.35.33-1.93.98l-1.33,1.49c-.6.61-.9,1.39-.9,2.36Z"/>
    <path d="M140.44,338.29v-28.96c0-.85.22-1.58.67-2.2.44-.62.99-.93,1.62-.93s1.18.3,1.62.91c.44.61.67,1.34.67,2.22v3.82l3.73-4.25c1.54-1.74,3.05-2.62,4.52-2.62h3.35c1.89,0,3.5.9,4.85,2.69s2.02,3.95,2.02,6.47v1.63c0,.87-.22,1.61-.67,2.22-.45.61-.99.91-1.62.91s-1.18-.3-1.62-.89c-.45-.59-.67-1.31-.67-2.16v-1.71c0-.85-.22-1.57-.67-2.16-.45-.59-.99-.89-1.62-.89h-2.97c-.64,0-1.34.45-2.12,1.34l-6.51,7.52v17.04c0,.85-.23,1.57-.68,2.16-.45.59-.99.89-1.61.89s-1.18-.3-1.62-.89c-.45-.59-.67-1.31-.67-2.16Z"/>
    <path d="M207.73,338.29v-42.19c0-.82.22-1.54.67-2.14.44-.61.98-.91,1.62-.91s1.15.3,1.61.91.68,1.32.68,2.14v17.99h13.95v-17.99c0-.82.22-1.54.67-2.14.44-.61.98-.91,1.62-.91s1.18.3,1.62.91.67,1.34.67,2.22v42.12c0,.82-.23,1.54-.7,2.14-.46.61-.99.91-1.59.91-.65,0-1.2-.3-1.63-.89-.44-.59-.65-1.31-.65-2.16v-18.1h-13.89v18.1c0,.82-.23,1.54-.7,2.14s-1.01.91-1.65.91-1.15-.3-1.61-.89c-.46-.59-.68-1.31-.68-2.16Z"/>
    <path d="M264.59,317.76v7.38c0,.82-.23,1.54-.68,2.14s-.99.91-1.61.91h-16.18v1.78c0,1.04.34,1.93,1.01,2.65l1.33,1.49c.73.75,1.42,1.13,2.07,1.13h11.77c.62,0,1.15.3,1.61.89s.68,1.31.68,2.16-.23,1.54-.7,2.14-.99.91-1.59.91h-12.07c-.8,0-1.64-.22-2.52-.67s-1.53-.92-1.95-1.4l-2.04-2.4c-.64-.68-1.17-1.62-1.59-2.83-.43-1.21-.64-2.33-.64-3.34v-13.99c0-.8.23-1.88.69-3.23.46-1.36,1.05-2.41,1.76-3.16l1.91-2c1.25-1.36,2.64-2.04,4.17-2.04h6.43c1.62,0,3.14.9,4.58,2.69l1.72,2.18c1.23,1.48,1.85,3.68,1.85,6.62ZM246.17,317.29v4.72h13.89v-4.25c0-1.14-.26-2.01-.79-2.62l-1.33-1.56c-.69-.75-1.31-1.13-1.85-1.13h-5.75c-.71,0-1.35.33-1.93.98l-1.33,1.49c-.6.61-.9,1.39-.9,2.36Z"/>
    <path d="M296.05,341.34h-9.78c-1.73,0-3.2-.69-4.41-2.07l-4.44-5.16c-1.42-1.57-2.12-3.71-2.12-6.4v-7.96c-.07-2.59.73-4.84,2.4-6.76l4-4.62c1.29-1.4,2.67-2.11,4.14-2.11h10.27c.64,0,1.18.3,1.62.89.44.59.67,1.32.67,2.16s-.22,1.6-.67,2.18c-.45.58-.99.87-1.62.87h-9.83c-.62,0-1.21.33-1.77.98l-3.68,4.18c-.6.68-.9,1.59-.9,2.73v7.45c0,.8.24,1.48.71,2.04l4.03,4.58c.51.61,1.18.91,2.02.91h9.37c.62,0,1.15.3,1.61.89s.68,1.31.68,2.16-.22,1.57-.67,2.16c-.45.59-.99.89-1.62.89Z"/>
    <path d="M308.94,338.29v-42.12c0-.87.22-1.61.67-2.22s.99-.91,1.62-.91,1.18.3,1.62.91c.44.61.67,1.34.67,2.22v24.93l12.31-13.96c.53-.58,1.1-.87,1.72-.87.65,0,1.2.31,1.63.93.44.62.65,1.35.65,2.2,0,.9-.23,1.62-.7,2.15l-9.6,10.82,11.83,13.85c.47.51.71,1.17.71,2s-.22,1.52-.65,2.16c-.44.64-.97.96-1.61.96s-1.2-.28-1.69-.84l-12.2-14.14-2.41,2.7v9.22c0,.85-.22,1.57-.67,2.16-.45.59-.99.89-1.62.89s-1.18-.3-1.62-.89c-.45-.59-.67-1.31-.67-2.16Z"/>
  </g>
</svg>